<svg width="24" height="24" viewBox="0 0 24 24" fill="none" xmlns="http://www.w3.org/2000/svg">
<path fill-rule="evenodd" clip-rule="evenodd" d="M8.66872 3.27272V3.9041C5.30645 5.22773 2.9574 9.57522 3.04265 13.343L3.04261 15.4357C1.32141 17.56 1.42269 20.7272 5.71688 20.7272H8.66872C8.66872 21.5952 9.02105 22.4276 9.64825 23.0414C10.2754 23.6552 11.126 24 12.013 24C12.9 24 13.7506 23.6552 14.3778 23.0414C15.005 22.4276 15.3573 21.5952 15.3573 20.7272H18.3173C22.6033 20.7272 22.6654 17.5534 20.9444 15.4291L20.9923 13.3459C21.0789 9.57373 18.7254 5.22233 15.3573 3.90059V3.27272C15.3573 2.40475 15.005 1.57231 14.3778 0.95856C13.7506 0.344808 12.9 0 12.013 0C11.126 0 10.2754 0.344808 9.64825 0.95856C9.02105 1.57231 8.66872 2.40474 8.66872 3.27272ZM13.1278 3.27272C13.1278 3.29488 13.1271 3.31697 13.1258 3.33895C12.7626 3.29524 12.3928 3.27272 12.0175 3.27272C11.6391 3.27272 11.2663 3.29561 10.9004 3.34002C10.899 3.31769 10.8983 3.29524 10.8983 3.27272C10.8983 2.9834 11.0158 2.70593 11.2248 2.50134C11.4338 2.29675 11.7174 2.18182 12.013 2.18182C12.3086 2.18182 12.5923 2.29675 12.8013 2.50134C13.0104 2.70593 13.1278 2.9834 13.1278 3.27272ZM10.8983 20.7272C10.8983 21.0166 11.0158 21.2941 11.2248 21.4987C11.4338 21.7032 11.7174 21.8182 12.013 21.8182C12.3086 21.8182 12.5923 21.7032 12.8013 21.4987C13.0104 21.2941 13.1278 21.0166 13.1278 20.7272H10.8983ZM18.3173 18.5454C19.2696 18.5454 19.7834 17.4522 19.1636 16.7446C18.8625 16.4008 18.702 15.9634 18.7124 15.5143L18.7633 13.297C18.8484 9.59299 15.8034 5.45454 12.0175 5.45454C8.23248 5.45454 5.18785 9.59161 5.27164 13.2947L5.32185 15.5147C5.33201 15.9636 5.17158 16.4009 4.87049 16.7446C4.25068 17.4522 4.76448 18.5454 5.71688 18.5454H18.3173Z" fill="#C14A09"/>
</svg>
