<svg width="24" height="24" viewBox="0 0 24 24" fill="none" xmlns="http://www.w3.org/2000/svg">
<path d="M20.9871 2.81674C21.2091 2.81674 21.365 2.85692 21.4467 2.88722C21.5441 3.13884 21.6755 4.0406 20.712 4.97332L15.7968 9.72781L15.8322 10.318C15.9071 11.5524 16.0453 13.7643 16.1645 15.6607C16.2693 17.349 16.3695 18.943 16.3763 19.0787C16.3797 19.1722 16.381 19.194 16.2911 19.2987C16.0903 19.5345 15.715 19.935 15.3998 20.267C14.9095 18.9898 13.8799 16.2931 13.3112 14.7833L12.5806 12.8408L11.0688 14.3031L8.28914 16.8879L7.90168 17.2614L7.88942 17.7896C7.87989 18.2112 7.88193 18.9687 7.88329 19.636C7.88465 20.101 7.88601 20.5239 7.88261 20.7564C7.87648 20.7676 7.97522 20.7801 7.96637 20.7953C7.90712 20.7031 7.84311 20.6043 7.7757 20.5008C7.21527 19.636 6.43965 18.4404 6.20336 18.067L6.03039 17.7936L5.74643 17.6276C4.71409 17.0242 3.57007 16.328 2.87209 15.8926C2.89592 15.8794 2.91567 15.9506 2.93201 15.942H2.97763C3.19759 15.942 3.56054 15.9466 3.96707 15.9519C4.49959 15.9591 5.10292 15.967 5.56461 15.967C5.74166 15.967 5.89897 15.9657 6.02562 15.9631L6.57244 15.9512L6.95922 15.5777L9.63473 12.908L11.141 11.4516L9.14239 10.7402C7.64019 10.2054 4.76312 9.1666 3.41686 8.67719C3.7621 8.36958 4.17817 8.00466 4.42059 7.80968C4.48801 7.75567 4.54113 7.728 4.5779 7.728L4.62625 7.72932C4.77674 7.73657 6.64121 7.85382 8.44372 7.96843C10.3572 8.08963 12.5172 8.22532 13.7457 8.30107L14.3592 8.33796L19.2758 3.58215C19.9663 2.91489 20.6445 2.81542 20.9877 2.81542L20.9871 2.81674ZM20.9871 1.5C20.1828 1.5 19.1948 1.79905 18.3129 2.65272L13.8315 6.98763C11.3072 6.83283 4.84211 6.41983 4.6814 6.41522C4.6528 6.4139 4.61739 6.41258 4.5779 6.41258C4.35931 6.41258 3.98274 6.45276 3.55373 6.79594C3.04982 7.19841 2.00045 8.15418 2.00045 8.15418C1.74713 8.39988 1.61911 8.7042 1.64976 8.99073C1.66814 9.16331 1.76552 9.47883 2.20406 9.64482C2.471 9.7456 6.7134 11.2817 8.67253 11.9786L5.99702 14.6483C5.87854 14.6509 5.73145 14.6523 5.56597 14.6523C4.75018 14.6523 3.48563 14.6266 2.97832 14.6266C2.9109 14.6266 2.8571 14.6266 2.81897 14.6279C2.66439 14.6325 2.34502 14.5587 1.50267 15.2398L1.44274 15.2938C1.19011 15.5382 1.13086 15.7819 1.12542 15.9433C1.11997 16.1093 1.16559 16.3484 1.41414 16.5407C1.56327 16.6573 3.47474 17.841 5.04299 18.7573C5.41889 19.3508 7.14853 22.0099 7.2391 22.1542C7.37121 22.3696 7.58639 22.4928 7.84448 22.5H7.86559C8.11618 22.5 8.37358 22.3795 8.62554 22.143C9.33851 21.3367 9.23977 21.0028 9.24317 20.8618C9.25475 20.4218 9.23568 18.5577 9.25135 17.8186L12.0304 15.2332C12.7406 17.1204 14.2932 21.1819 14.3974 21.4408C14.5703 21.8657 14.8965 21.9585 15.0749 21.9763C15.1042 21.9796 15.1342 21.9809 15.1635 21.9809C15.4324 21.9809 15.7103 21.8584 15.9391 21.6384C15.9391 21.6384 16.9231 20.628 17.3412 20.1366C17.7593 19.6452 17.7436 19.2256 17.7355 19.028C17.7321 18.891 17.3378 12.6709 17.1914 10.2423L21.6742 5.90604C23.2628 4.36864 23.0102 2.51637 22.4205 1.9466C22.1597 1.693 21.6326 1.50198 20.9884 1.50198L20.9871 1.5Z" fill="#C14A09"/>
</svg>
