<svg width="24" height="24" viewBox="0 0 24 24" fill="none" xmlns="http://www.w3.org/2000/svg">
<path d="M18.7285 0.066988C18.4208 0.184381 18.2544 0.378336 17.6743 1.31748L17.1447 2.17496L16.2721 2.38933C15.798 2.51183 15.2886 2.65475 15.1423 2.70579C14.6884 2.87422 14.3706 3.34379 14.3706 3.84399C14.3706 4.237 14.4715 4.42075 15.1877 5.28844L15.8888 6.13571L15.8585 6.39091C15.7678 7.2484 15.7324 8.2641 15.7829 8.45806C15.9191 8.97867 16.4235 9.35637 16.9682 9.35127C17.2254 9.35127 17.4121 9.29002 18.2342 8.95315L19.1976 8.55503L20.1509 8.95315C20.9982 9.30533 21.1395 9.35127 21.432 9.35127C21.9566 9.35127 22.3248 9.10117 22.5467 8.59587C22.6526 8.34577 22.6526 8.33556 22.587 7.26881C22.5467 6.67674 22.5164 6.17654 22.5164 6.15613C22.5164 6.13571 22.8191 5.75291 23.1873 5.30375C23.5555 4.85459 23.8884 4.40544 23.9287 4.30846C24.0245 4.07367 24.0245 3.6092 23.9237 3.36931C23.8278 3.13453 23.5807 2.86912 23.3487 2.75172C23.2528 2.70068 22.7384 2.55266 22.2088 2.41996L21.2454 2.17496L20.6704 1.25113C20.1761 0.449793 20.0651 0.306879 19.8583 0.174173C19.5658 -0.00446796 19.0563 -0.0555086 18.7285 0.066988ZM19.7474 2.52204C20.0147 2.95588 20.2971 3.354 20.3728 3.41015C20.4485 3.46629 20.8822 3.6041 21.3362 3.71639C21.7901 3.82868 22.2138 3.93586 22.2743 3.95118C22.3752 3.9818 22.3349 4.04815 21.7952 4.69126C21.4724 5.08428 21.1647 5.47729 21.1142 5.57427C21.0285 5.73249 21.0285 5.80395 21.0941 6.73289C21.1344 7.27902 21.1596 7.73328 21.1495 7.74349C21.1445 7.7537 20.7309 7.59547 20.2316 7.39641C19.7322 7.19736 19.2682 7.03403 19.1976 7.03403C19.1219 7.03403 18.6629 7.19736 18.1737 7.39131C17.6844 7.59037 17.2708 7.73839 17.2557 7.72818C17.2406 7.71287 17.2607 7.2535 17.296 6.71247C17.3515 5.83968 17.3515 5.70697 17.2809 5.57427C17.2406 5.4926 16.9379 5.1098 16.6151 4.72189C16.2923 4.33398 16.0351 4.00222 16.0502 3.99201C16.0653 3.9767 16.4991 3.8542 17.0136 3.72149C17.7147 3.54285 17.982 3.45098 18.0728 3.36421C18.1434 3.29275 18.4208 2.88953 18.6881 2.45569C18.9504 2.02695 19.1875 1.68497 19.2127 1.70029C19.2379 1.7156 19.48 2.08309 19.7474 2.52204Z" fill="#C14A09"/>
<path d="M2.86056 3.9716C1.75595 4.16045 0.817794 4.88523 0.318453 5.93156C-0.0194857 6.64103 -0.00939799 6.42155 0.00573358 12.4443L0.0208651 17.8802L0.157049 18.2528C0.35376 18.8091 0.580733 19.1613 1.00442 19.59C1.43314 20.0239 1.78621 20.2484 2.32591 20.4475C2.69411 20.5853 2.69411 20.5853 4.36867 20.6006L6.04827 20.6159L6.01297 21.5755C5.97766 22.6627 6.01801 22.8974 6.32064 23.3211C6.6384 23.7549 7.12766 24.005 7.68753 23.9999C8.25244 23.9999 8.35836 23.9387 10.618 22.2186L12.7314 20.6108H15.2584C17.5886 20.6108 17.8156 20.6057 18.1636 20.5139C18.5318 20.4169 18.9757 20.2178 19.2834 20.0034C19.7171 19.7074 20.2467 19.0541 20.4687 18.5488C20.7511 17.9006 20.741 17.9873 20.7612 14.4196L20.7814 11.1122L20.6704 10.8774C20.4737 10.464 19.9844 10.3415 19.6112 10.612C19.3086 10.8264 19.3136 10.7651 19.3136 14.2154C19.3136 16.6858 19.2985 17.4259 19.243 17.625C19.0261 18.4518 18.4057 19.0082 17.5735 19.1307C17.3768 19.1562 16.1158 19.1817 14.7338 19.1817C12.9432 19.1817 12.2169 19.197 12.1362 19.2429C12.0757 19.2736 11.0669 20.0341 9.89674 20.9273C8.72152 21.8205 7.73797 22.5504 7.7077 22.5504C7.68248 22.5504 7.60682 22.5249 7.55134 22.4942C7.45047 22.4381 7.44542 22.4177 7.48577 21.0957C7.51604 19.8707 7.51099 19.7329 7.43029 19.5645C7.25376 19.1817 7.25376 19.1817 5.26648 19.1817C4.29806 19.1817 3.34477 19.1562 3.15814 19.1307C2.2906 19.0031 1.59959 18.3191 1.45836 17.4412C1.39279 17.0278 1.39279 7.60059 1.45836 7.14122C1.5542 6.46749 1.97788 5.89073 2.60836 5.58959L2.9463 5.42626L7.7884 5.40074L12.6305 5.37522L12.7869 5.26293C12.9382 5.15064 13.1097 4.82909 13.1097 4.65044C13.1097 4.60451 13.0643 4.4667 13.0038 4.3493C12.9281 4.19108 12.8423 4.10431 12.686 4.02775C12.4741 3.92056 12.4237 3.92056 7.78336 3.92567C5.20595 3.93077 2.9917 3.95119 2.86056 3.9716Z" fill="#C14A09"/>
<path d="M6.1996 9.77967C5.96254 9.90727 5.77087 10.2799 5.81627 10.53C5.85662 10.7494 6.06846 11.0097 6.28535 11.0965C6.41649 11.1578 7.19829 11.168 10.5474 11.168C14.3505 11.168 14.6632 11.1629 14.8246 11.0761C15.3441 10.8107 15.3693 10.0502 14.8649 9.78477C14.6834 9.6929 14.5068 9.68779 10.5272 9.68779C6.6132 9.68779 6.36605 9.6929 6.1996 9.77967Z" fill="#C14A09"/>
<path d="M6.16436 13.5109C5.70537 13.7967 5.69528 14.4245 6.14419 14.7256L6.31568 14.843H8.6762H11.0317L11.1931 14.7103C11.5865 14.3734 11.5966 13.9243 11.2183 13.567L11.0821 13.4394L8.70647 13.4241C6.41656 13.4139 6.32072 13.4139 6.16436 13.5109Z" fill="#C14A09"/>
</svg>
