<svg width="24" height="24" viewBox="0 0 24 24" fill="none" xmlns="http://www.w3.org/2000/svg">
<path d="M11.3108 0.12249C11.1518 0.191664 10.8072 0.372585 10.5475 0.521578C8.38988 1.80931 5.8241 2.6873 3.2 3.0385C2.01253 3.19814 1.52482 3.48548 1.16964 4.24641L1 4.60293V8.35437C1 12.5262 1.0053 12.5847 1.37108 14.0321C2.10265 16.8949 3.89976 19.4384 6.35952 21.0986C6.88434 21.4551 10.8973 23.706 11.3108 23.8763C11.7137 24.0412 12.2863 24.0412 12.6945 23.8763C13.1239 23.6954 16.9725 21.5403 17.5663 21.1465C20.4554 19.2202 22.348 16.2297 22.9046 12.7177C22.9894 12.1697 23 11.7174 23 8.35437V4.60293L22.8304 4.24641C22.4858 3.51741 21.9716 3.19282 20.9272 3.05979C18.2713 2.71391 15.8752 1.90509 13.5161 0.564148C13.1345 0.340658 12.7157 0.12781 12.5884 0.0799198C12.2386 -0.0424671 11.6607 -0.021183 11.3108 0.12249ZM12.599 1.99023C15.0747 3.43227 17.7147 4.34752 20.4819 4.71468C20.906 4.76789 21.1764 4.83174 21.24 4.88495C21.3301 4.96477 21.3354 5.14569 21.3142 8.56722C21.293 12.5049 21.2877 12.5741 20.9325 13.8086C20.2381 16.2297 18.7484 18.2944 16.6969 19.6832C16.1561 20.0503 12.1219 22.2959 12.0053 22.2959C11.8993 22.2959 8.0294 20.1568 7.41446 19.7524C6.85783 19.3958 6.46024 19.0766 5.93542 18.5711C4.24964 16.9534 3.22651 15.0112 2.79181 12.6113C2.71759 12.175 2.70169 11.6163 2.68578 8.54061C2.66458 5.15101 2.66988 4.96477 2.76 4.88495C2.82361 4.83174 3.09398 4.76789 3.51807 4.71468C5.58554 4.43797 7.69012 3.82072 9.61446 2.93208C10.3195 2.60216 11.6925 1.86784 11.8145 1.75077C11.9205 1.64967 12.1272 1.71353 12.599 1.99023Z" fill="#C14A09"/>
<path d="M14.9157 8.82196C14.8548 8.85478 14.0579 9.67509 13.1438 10.6501C12.2298 11.6251 11.4657 12.422 11.447 12.422C11.4282 12.422 11.1282 12.1642 10.7813 11.8548C9.80633 10.9829 9.62352 10.8376 9.43602 10.786C9.05633 10.6782 8.61571 10.9454 8.53133 11.3251C8.48915 11.5079 8.49383 11.5876 8.58758 11.8267C8.66727 12.0329 11.0579 14.1376 11.2876 14.2079C11.5595 14.2876 11.7891 14.2267 12.0235 14.011C12.3423 13.7157 15.8579 9.95165 15.9235 9.83446C15.9563 9.77353 15.9798 9.61884 15.9845 9.49228C15.9845 9.05634 15.6938 8.76571 15.2579 8.7704C15.1313 8.7704 14.9766 8.79384 14.9157 8.82196Z" fill="#C14A09"/>
</svg>
