<svg width="24" height="24" viewBox="0 0 24 24" fill="none" xmlns="http://www.w3.org/2000/svg">
<g clip-path="url(#clip0_88_1003)">
<path d="M10 0C7.25397 0 5 2.25428 5 4.99898C5 6.47979 5.65689 7.81713 6.69234 8.73547C2.78311 10.1828 0 14.1155 0 18.667C2.51466e-05 19.0205 0.140552 19.3596 0.390673 19.6095C0.640793 19.8595 0.980023 20 1.33375 20H7.74953C8.01178 19.0312 8.43172 18.13 8.98523 17.3341H2.77305C3.36292 13.5896 6.39531 10.8072 10 10.8072C10.4996 10.8072 10.9875 10.8624 11.4602 10.9645C11.6225 9.33574 12.7772 7.98507 14.3051 7.52797C14.7459 6.78451 15 5.91953 15 4.99898C15 2.25428 12.746 0 10 0ZM10 2.66586C11.3036 2.66586 12.3325 3.69419 12.3325 4.99898C12.3325 6.30378 11.3036 7.33227 10 7.33227C8.69639 7.33227 7.66742 6.30378 7.66742 4.99898C7.66742 3.69419 8.69639 2.66586 10 2.66586Z" fill="#F0EFEB"/>
<path d="M16 8C13.8032 8 12 9.80345 12 11.9992C12 13.1839 12.5255 14.2537 13.3539 14.9884C10.2265 16.1463 8 19.2924 8 22.9336C8.00003 23.2164 8.11245 23.4877 8.31254 23.6876C8.51263 23.8876 8.784 24 9.06698 24H16H22.933C23.216 24 23.4873 23.8876 23.6874 23.6877C23.8875 23.4877 24 23.2165 24 22.9336C24 19.2924 21.7736 16.1463 18.6462 14.9884C19.4746 14.2537 20 13.1839 20 11.9992C20 9.80345 18.1968 8 16 8ZM16 10.1327C17.0429 10.1327 17.866 10.9554 17.866 11.9992C17.866 13.0431 17.0429 13.8658 16 13.8658C14.9571 13.8658 14.134 13.0431 14.134 11.9992C14.134 10.9554 14.9571 10.1327 16 10.1327ZM16 16.6457C18.8838 16.6457 21.3097 18.8716 21.7816 21.8673H16H10.2184C10.6903 18.8716 13.1162 16.6457 16 16.6457Z" fill="#F0EFEB"/>
</g>
<defs>
<clipPath id="clip0_88_1003">
<rect width="24" height="24" fill="white"/>
</clipPath>
</defs>
</svg>
