<svg width="32" height="32" viewBox="0 0 32 32" fill="none" xmlns="http://www.w3.org/2000/svg">
<path d="M26.7432 4.63025C27.0085 4.63025 27.1949 4.68 27.2926 4.71751C27.409 5.02905 27.5661 6.14551 26.4143 7.3003L20.5387 13.1868L20.581 13.9175C20.6705 15.4458 20.8358 18.1844 20.9782 20.5323C21.1036 22.6225 21.2233 24.5961 21.2314 24.7641C21.2355 24.8799 21.2371 24.9068 21.1296 25.0365C20.8895 25.3285 20.441 25.8243 20.0641 26.2353C19.478 24.654 18.2472 21.3152 17.5675 19.446L16.694 17.041L14.8869 18.8515L11.564 22.0517L11.1009 22.5141L11.0862 23.1681C11.0748 23.6901 11.0772 24.6279 11.0789 25.4541C11.0805 26.0298 11.0821 26.5534 11.0781 26.8413C11.0707 26.8552 11.1888 26.8706 11.1782 26.8894C11.1074 26.7752 11.0308 26.6529 10.9503 26.5249C10.2803 25.4541 9.35314 23.9739 9.07068 23.5115L8.86392 23.173L8.52447 22.9675C7.29041 22.2205 5.92284 21.3585 5.08847 20.8194C5.11696 20.8031 5.14057 20.8912 5.1601 20.8806H5.21464C5.47757 20.8806 5.91145 20.8863 6.39742 20.8928C7.03399 20.9018 7.75521 20.9115 8.30712 20.9115C8.51877 20.9115 8.70681 20.9099 8.85822 20.9067L9.51188 20.892L9.97424 20.4296L13.1725 17.1242L14.9732 15.3211L12.584 14.4403C10.7883 13.7781 7.34902 12.492 5.73969 11.886C6.1524 11.5052 6.64977 11.0534 6.93956 10.812C7.02015 10.7451 7.08364 10.7109 7.1276 10.7109L7.1854 10.7125C7.3653 10.7215 9.5941 10.8666 11.7488 11.0085C14.0362 11.1586 16.6183 11.3266 18.0868 11.4204L18.8203 11.466L24.6975 5.5779C25.5229 4.75176 26.3337 4.62862 26.744 4.62862L26.7432 4.63025ZM26.7432 3C25.7818 3 24.6006 3.37025 23.5465 4.42718L18.1894 9.7942C15.1718 9.60255 7.44344 9.09121 7.25133 9.08551C7.21714 9.08387 7.17481 9.08224 7.1276 9.08224C6.8663 9.08224 6.41614 9.13199 5.90331 9.55688C5.30093 10.0552 4.04652 11.2385 4.04652 11.2385C3.7437 11.5427 3.59066 11.9195 3.6273 12.2742C3.64927 12.4879 3.76568 12.8785 4.28991 13.0841C4.60901 13.2088 9.68038 15.1107 12.0223 15.9735L8.82403 19.2788C8.68239 19.2821 8.50656 19.2837 8.30875 19.2837C7.33355 19.2837 5.82191 19.2519 5.21546 19.2519C5.13487 19.2519 5.07056 19.2519 5.02498 19.2536C4.84019 19.2593 4.45841 19.1679 3.45147 20.0112L3.37983 20.0781C3.07783 20.3806 3.00701 20.6824 3.0005 20.8822C2.99398 21.0877 3.04852 21.3837 3.34564 21.6219C3.52391 21.7662 5.80888 23.2317 7.68358 24.3661C8.13292 25.1009 10.2005 28.3932 10.3088 28.5718C10.4667 28.8385 10.724 28.991 11.0325 29H11.0577C11.3573 29 11.665 28.8508 11.9662 28.558C12.8184 27.5598 12.7004 27.1463 12.7045 26.9718C12.7183 26.427 12.6955 24.119 12.7143 23.204L16.0363 20.003C16.8853 22.3395 18.7413 27.3681 18.8658 27.6886C19.0726 28.2146 19.4625 28.3296 19.6758 28.3517C19.7108 28.3557 19.7466 28.3574 19.7816 28.3574C20.1032 28.3574 20.4353 28.2057 20.7088 27.9333C20.7088 27.9333 21.8851 26.6823 22.3849 26.0739C22.8847 25.4655 22.866 24.946 22.8562 24.7013C22.8521 24.5317 22.3808 16.8306 22.2058 13.8238L27.5645 8.4551C29.4636 6.55165 29.1616 4.25837 28.4567 3.55293C28.1449 3.23895 27.5148 3.00245 26.7448 3.00245L26.7432 3Z" fill="white"/>
</svg>
