<svg width="24" height="24" viewBox="0 0 24 24" fill="none" xmlns="http://www.w3.org/2000/svg">
<g clip-path="url(#clip0_205_435)">
<path d="M17.7 0.11709C15.4688 0.538965 13.8797 2.34365 13.7531 4.59365C13.6781 5.87334 14.1844 7.2374 15.0469 8.08584C15.2859 8.32022 15.3281 8.39053 15.225 8.39053C15.1125 8.39053 14.1 8.90615 13.7063 9.16397C13.4859 9.30459 13.2938 9.42178 13.275 9.42178C13.2563 9.42178 13.1531 9.24834 13.0453 9.03272C12.4969 7.95928 11.4141 7.05459 10.2422 6.68897C9.225 6.37022 8.1 6.40772 7.07813 6.79209C5.93438 7.22334 4.875 8.26397 4.39688 9.43115C3.87188 10.7202 3.92813 12.1452 4.55625 13.3827C4.8 13.8655 4.95938 14.0905 5.30625 14.4608L5.58282 14.7608L5.41406 14.8358C5.31563 14.8733 5.23125 14.9062 5.21719 14.9062C5.20782 14.9062 4.96407 15.0233 4.67344 15.1687C2.55 16.2327 0.909377 18.089 0.187502 20.2405C-0.0843728 21.0562 -0.0421853 21.7827 0.314065 22.4999C0.534377 22.9358 1.06406 23.489 1.47656 23.7046C2.07188 24.014 1.80469 23.9999 6.76407 23.9999H11.2594L11.4422 23.8968C11.5406 23.8405 11.6813 23.714 11.7516 23.6108C11.8641 23.4515 11.8828 23.3765 11.8828 23.1046C11.8828 22.828 11.8641 22.7624 11.7422 22.589C11.6672 22.4812 11.5078 22.3405 11.3953 22.2796L11.1891 22.1718H6.91875C2.85469 22.1718 2.63906 22.1671 2.45625 22.0827C2.22188 21.9749 2.07656 21.8343 1.96406 21.5858C1.85625 21.3562 1.85156 21.164 1.95 20.8733C2.52188 19.1624 3.83438 17.6812 5.50781 16.8515C6.45938 16.3827 7.27969 16.153 8.27344 16.0874C9.85313 15.9749 11.2078 16.3218 12.6516 17.1983C13.0781 17.4562 13.2656 17.5124 13.5375 17.4608C14.2547 17.3343 14.5406 16.4155 14.025 15.8999C13.8047 15.6843 12.975 15.1921 12.4594 14.9671C12.2438 14.878 12.0609 14.7937 12.0516 14.7843C12.0422 14.7749 12.1594 14.6343 12.3141 14.4702C12.9563 13.7999 13.3875 12.9093 13.5422 11.9202C13.5844 11.6624 13.6078 11.6108 13.8047 11.428C14.3719 10.903 15.3422 10.3265 16.1016 10.0593C17.0203 9.73584 17.7141 9.63272 18.7688 9.67022C20.1188 9.71709 21.1125 10.0218 22.2844 10.7437C22.6828 10.9921 22.7906 11.039 23.0109 11.053C23.8734 11.1093 24.3234 10.0405 23.6906 9.4499C23.4844 9.2624 22.8563 8.8874 22.2844 8.61553C22.0031 8.48428 21.7641 8.36709 21.7547 8.3624C21.7453 8.35303 21.8625 8.2124 22.0172 8.05303C22.6078 7.42959 22.9781 6.73115 23.1844 5.83115C23.3156 5.28272 23.3063 4.28428 23.1656 3.73584C22.7297 1.9874 21.4125 0.646778 19.6922 0.201466C19.1156 0.051466 18.2438 0.0186539 17.7 0.11709ZM19.1156 1.99209C20.7422 2.37646 21.7313 3.94209 21.3281 5.50303C21.0375 6.64678 20.1563 7.47647 19.0125 7.68272C17.7891 7.90772 16.4953 7.25615 15.9422 6.13584C15.5438 5.32959 15.5109 4.56553 15.8297 3.7499C16.3406 2.45615 17.7938 1.68271 19.1156 1.99209ZM9.44532 8.41397C10.4953 8.63428 11.4234 9.56709 11.6484 10.6218C11.9672 12.1171 11.0719 13.5983 9.58594 14.0437C9.20156 14.1608 8.42344 14.1608 8.03907 14.0437C6.71719 13.6499 5.83594 12.4077 5.925 11.0718C6.02344 9.54365 7.27032 8.3624 8.78907 8.34834C8.97188 8.34834 9.26719 8.37647 9.44532 8.41397Z" fill="#C14A09"/>
<path d="M19.2608 15.1828C19.0546 15.2484 18.8858 15.3844 18.7546 15.5813L18.6327 15.7734L18.6186 17.2125L18.6046 18.6516L17.1608 18.6656L15.7171 18.6797L15.5296 18.8063C15.2811 18.9703 15.1405 19.2047 15.1077 19.5094C15.089 19.7203 15.103 19.7953 15.2202 20.0156C15.328 20.2219 15.403 20.2969 15.6046 20.4L15.853 20.5313H17.2311H18.6093V21.9047V23.2781L18.7311 23.5219C18.8999 23.8594 19.139 24 19.5468 24C19.9546 24 20.1936 23.8594 20.3624 23.5219L20.4843 23.2781V21.9047V20.5313H21.8624H23.2405L23.489 20.4C23.6905 20.2969 23.7655 20.2219 23.8733 20.0156C23.9905 19.7953 24.0046 19.7203 23.9811 19.5047C23.953 19.1813 23.7702 18.9141 23.489 18.7641C23.2874 18.6563 23.2593 18.6563 21.8858 18.6563H20.489L20.4749 17.2125C20.4608 15.7922 20.4608 15.7734 20.3483 15.5953C20.189 15.3375 19.9358 15.1875 19.6358 15.1641C19.4952 15.15 19.3265 15.1594 19.2608 15.1828Z" fill="#C14A09"/>
</g>
<defs>
<clipPath id="clip0_205_435">
<rect width="24" height="24" fill="white"/>
</clipPath>
</defs>
</svg>
