<svg width="24" height="24" viewBox="0 0 24 24" fill="none" xmlns="http://www.w3.org/2000/svg">
<path d="M12 15.75L15.75 12M15.75 12L12 8.25M15.75 12H2M8.25 6.06074V6.00025C8.25 4.60011 8.25 3.89953 8.52249 3.36475C8.76216 2.89434 9.14434 2.51216 9.61475 2.27249C10.1495 2 10.8501 2 12.2503 2H18.0002C19.4004 2 20.0995 2 20.6343 2.27249C21.1046 2.51216 21.4881 2.89434 21.7277 3.36475C22 3.899 22 4.59874 22 5.99614V18.0045C22 19.4019 22 20.1006 21.7277 20.6349C21.4881 21.1052 21.1046 21.4881 20.6343 21.7277C20.1 22 19.4013 22 18.0039 22H12.2461C10.8488 22 10.149 22 9.61475 21.7277C9.14434 21.4881 8.76216 21.1049 8.52249 20.6345C8.25 20.0998 8.25 19.4001 8.25 18V17.9375" stroke="#D92222" stroke-width="2" stroke-linecap="round" stroke-linejoin="round"/>
</svg>
