<svg width="24" height="24" viewBox="0 0 24 24" fill="none" xmlns="http://www.w3.org/2000/svg">
<path d="M22.5644 1.08018L22.7472 1.25275L22.9198 1.43559C24.4155 3.1152 24.3579 5.69089 22.7472 7.30157L8.44195 21.6069C8.11101 21.9378 7.69943 22.1767 7.2479 22.2998L1.13331 23.9674C0.464112 24.1499 -0.149931 23.5359 0.0325774 22.8667L1.70019 16.7521C1.82334 16.3006 2.06218 15.889 2.39312 15.5581L16.6984 1.25275C18.3091 -0.357929 20.8848 -0.415453 22.5644 1.08018ZM15.5396 4.9472L3.66089 16.8258C3.55058 16.9361 3.47096 17.0733 3.42992 17.2238L2.17507 21.8249L6.77616 20.5701C6.92667 20.529 7.06386 20.4494 7.17418 20.3391L19.0525 8.46007L15.5396 4.9472ZM5.40956 10.8506L3.61666 12.6435L0.897438 12.644C0.402343 12.644 0.000990159 12.2427 0.000990159 11.7476C0.000990159 11.2525 0.402343 10.8511 0.897438 10.8511L5.40956 10.8506ZM10.1906 6.06955L8.39771 7.86244L0.897438 7.86295C0.402343 7.86295 0.000990159 7.4616 0.000990159 6.96651C0.000990159 6.47141 0.402343 6.07006 0.897438 6.07006L10.1906 6.06955ZM17.9662 2.52052L16.8066 3.67902L20.3195 7.1931L21.4795 6.03381C22.4496 5.06364 22.4496 3.49069 21.4795 2.52052C20.5093 1.55035 18.9364 1.55035 17.9662 2.52052ZM14.9717 1.28849L13.1788 3.08139L0.897438 3.0819C0.402343 3.0819 0.000990159 2.68055 0.000990159 2.18545C0.000990159 1.69036 0.402343 1.289 0.897438 1.289L14.9717 1.28849Z" fill="#C14A09"/>
</svg>
