<svg width="24" height="24" viewBox="0 0 24 24" fill="none" xmlns="http://www.w3.org/2000/svg">
<path d="M3.27273 3.9999C2.36899 3.9999 1.63636 4.71625 1.63636 5.5999V18.3999C1.63636 19.2836 2.36899 19.9999 3.27273 19.9999H20.7273C21.631 19.9999 22.3636 19.2836 22.3636 18.3999V5.5999C22.3636 4.71625 21.631 3.9999 20.7273 3.9999H3.27273ZM20.7273 2.3999C22.5348 2.3999 24 3.83259 24 5.5999V18.3999C24 20.1672 22.5348 21.5999 20.7273 21.5999H3.27273C1.46525 21.5999 0 20.1672 0 18.3999V5.5999C0 3.83259 1.46525 2.3999 3.27273 2.3999H20.7273ZM9.8 15.7599H4.8C4.34813 15.7599 3.98182 16.1181 3.98182 16.5599C3.98182 17.0017 4.34813 17.3599 4.8 17.3599H9.8C10.2519 17.3599 10.6182 17.0017 10.6182 16.5599C10.6182 16.1181 10.2519 15.7599 9.8 15.7599ZM16.5 6.3999C14.6707 6.3999 13.1818 7.82927 13.1818 9.5999C13.1818 10.5275 13.5905 11.3615 14.2427 11.9453C13.007 12.6752 12.1818 13.9889 12.1818 15.4908C12.1818 15.9193 12.2494 16.3401 12.3807 16.7418C12.5183 17.1627 12.9788 17.3948 13.4092 17.2602C13.8396 17.1257 14.077 16.6754 13.9394 16.2546C13.8594 16.0099 13.8182 15.7534 13.8182 15.4908C13.8182 14.0802 15.0155 12.9308 16.5 12.9308C17.9845 12.9308 19.1818 14.0802 19.1818 15.4908C19.1818 15.6977 19.1563 15.9009 19.1062 16.0976C18.9971 16.5264 19.2642 16.9604 19.7027 17.0671C20.1412 17.1737 20.5851 16.9126 20.6942 16.4839C20.7763 16.1611 20.8182 15.8282 20.8182 15.4908C20.8182 13.9889 19.993 12.6752 18.7576 11.944C19.4095 11.3615 19.8182 10.5275 19.8182 9.5999C19.8182 7.82927 18.3293 6.3999 16.5 6.3999ZM9.8 11.5599H4.8C4.34813 11.5599 3.98182 11.9181 3.98182 12.3599C3.98182 12.8017 4.34813 13.1599 4.8 13.1599H9.8C10.2519 13.1599 10.6182 12.8017 10.6182 12.3599C10.6182 11.9181 10.2519 11.5599 9.8 11.5599ZM16.5 7.9999C17.4322 7.9999 18.1818 8.71957 18.1818 9.5999C18.1818 10.4802 17.4322 11.1999 16.5 11.1999C15.5678 11.1999 14.8182 10.4802 14.8182 9.5999C14.8182 8.71957 15.5678 7.9999 16.5 7.9999ZM9.8 7.3599H4.8C4.34813 7.3599 3.98182 7.71807 3.98182 8.1599C3.98182 8.60173 4.34813 8.9599 4.8 8.9599H9.8C10.2519 8.9599 10.6182 8.60173 10.6182 8.1599C10.6182 7.71807 10.2519 7.3599 9.8 7.3599Z" fill="#C14A09"/>
</svg>
