<svg width="40" height="40" viewBox="0 0 40 40" fill="none" xmlns="http://www.w3.org/2000/svg">
<rect width="40" height="40" rx="20" fill="#C14A09"/>
<path d="M19 26C19 26.5523 19.4477 27 20 27C20.5523 27 21 26.5523 21 26C21 25.4477 20.5523 25 20 25C19.4477 25 19 25.4477 19 26Z" stroke="#F0EFEB" stroke-width="2" stroke-linecap="round" stroke-linejoin="round"/>
<path d="M19 20C19 20.5523 19.4477 21 20 21C20.5523 21 21 20.5523 21 20C21 19.4477 20.5523 19 20 19C19.4477 19 19 19.4477 19 20Z" stroke="#F0EFEB" stroke-width="2" stroke-linecap="round" stroke-linejoin="round"/>
<path d="M19 14C19 14.5523 19.4477 15 20 15C20.5523 15 21 14.5523 21 14C21 13.4477 20.5523 13 20 13C19.4477 13 19 13.4477 19 14Z" stroke="#F0EFEB" stroke-width="2" stroke-linecap="round" stroke-linejoin="round"/>
</svg>
