<svg width="80" height="80" viewBox="0 0 80 80" fill="none" xmlns="http://www.w3.org/2000/svg">
<path d="M80 40C80 62.0914 62.0914 80 40 80C17.9086 80 0 62.0914 0 40C0 17.9086 17.9086 0 40 0C62.0914 0 80 17.9086 80 40Z" fill="#333333"/>
<path d="M53.9423 54.3978C52.2235 56.7784 50.4012 59.1014 47.6264 59.1398C44.8515 59.1974 43.961 57.6231 40.8134 57.6231C37.6451 57.6231 36.6718 59.1015 34.0419 59.1974C31.3291 59.2934 29.279 56.6632 27.5395 54.3402C23.9985 49.5981 21.2857 40.8627 24.9303 34.9879C26.7319 32.0697 29.9624 30.2266 33.462 30.169C36.1127 30.1306 38.6391 31.8393 40.275 31.8393C41.8902 31.8393 44.955 29.785 48.1648 30.0922C49.5108 30.1498 53.2796 30.5913 55.7025 33.8935C55.5161 34.0087 51.2088 36.351 51.2503 41.2082C51.3124 47.0063 56.7379 48.9453 56.8 48.9645C56.7379 49.0989 55.9303 51.7291 53.9423 54.3978ZM42.118 23.6798C43.6297 22.0863 46.1354 20.8768 48.2062 20.8C48.4754 23.0462 47.5021 25.3117 46.0526 26.9244C44.6237 28.5563 42.263 29.8234 39.9437 29.6506C39.6331 27.4428 40.7927 25.1389 42.118 23.6798Z" fill="white"/>
</svg>
