<svg width="80" height="80" viewBox="0 0 80 80" fill="none" xmlns="http://www.w3.org/2000/svg">
<path d="M80 40C80 62.0914 62.0914 80 40 80C17.9086 80 0 62.0914 0 40C0 17.9086 17.9086 0 40 0C62.0914 0 80 17.9086 80 40Z" fill="#333333"/>
<path fill-rule="evenodd" clip-rule="evenodd" d="M49.0211 27.8362C47.9322 27.6208 46.4613 27.46 45.5364 27.46C43.0316 27.46 42.8689 28.5366 42.8689 30.2594V33.326H49.1301L48.5843 39.6782H42.8689V59H35.0293V39.6782H31V33.326H35.0293V29.3968C35.0293 24.0146 37.5879 21 44.0117 21C46.2436 21 47.8771 21.323 50 21.7536L49.0211 27.8362Z" fill="white"/>
</svg>
