<svg width="80" height="80" viewBox="0 0 80 80" fill="none" xmlns="http://www.w3.org/2000/svg">
<path d="M80 40C80 62.0914 62.0914 80 40 80C17.9086 80 0 62.0914 0 40C0 17.9086 17.9086 0 40 0C62.0914 0 80 17.9086 80 40Z" fill="#333333"/>
<path fill-rule="evenodd" clip-rule="evenodd" d="M28.6061 40C28.6061 38.7298 28.817 37.512 29.1936 36.3698L22.6029 31.3369C21.3184 33.9449 20.5947 36.8835 20.5947 40C20.5947 43.1138 21.3175 46.0507 22.6002 48.6569L29.1873 43.6142C28.8144 42.4773 28.6061 41.264 28.6061 40Z" fill="#FBBC05"/>
<path fill-rule="evenodd" clip-rule="evenodd" d="M40.178 28.4444C42.9375 28.4444 45.4299 29.4222 47.3883 31.0222L53.0852 25.3333C49.6136 22.3111 45.1629 20.4444 40.178 20.4444C32.439 20.4444 25.7878 24.8702 22.6029 31.3369L29.1936 36.3698C30.7122 31.76 35.041 28.4444 40.178 28.4444Z" fill="#EB4335"/>
<path fill-rule="evenodd" clip-rule="evenodd" d="M40.178 51.5555C35.041 51.5555 30.7122 48.24 29.1936 43.6302L22.6029 48.6622C25.7878 55.1298 32.439 59.5555 40.178 59.5555C44.9546 59.5555 49.5148 57.8595 52.9375 54.6818L46.6815 49.8453C44.9163 50.9573 42.6936 51.5555 40.178 51.5555Z" fill="#34A853"/>
<path fill-rule="evenodd" clip-rule="evenodd" d="M58.8712 40C58.8712 38.8444 58.6932 37.6 58.4261 36.4444H40.178V44H50.6818C50.1566 46.576 48.727 48.5564 46.6815 49.8453L52.9375 54.6818C56.5328 51.3449 58.8712 46.3742 58.8712 40Z" fill="#4285F4"/>
</svg>
